{
  "asset": {
    "version": "2.0",
    "generator": "THREE.GLTFExporter"
  },
  "scenes": [
    {
      "name": "AuxScene",
      "nodes": [
        5
      ]
    }
  ],
  "scene": 0,
  "nodes": [
    {
      "name": "t_shirts_1",
      "mesh": 0
    },
    {
      "name": "t_shirts_2",
      "mesh": 1
    },
    {
      "name": "t_shirts_3",
      "mesh": 2
    },
    {
      "name": "t_shirts_4",
      "mesh": 3
    },
    {
      "name": "t_shirts_5",
      "mesh": 4
    },
    {
      "matrix": [
        0.05,
        0,
        0,
        0,
        0,
        -6.717942824252532e-9,
        0.04999999828857256,
        0,
        0,
        -0.04999999828857256,
        -6.717942824252532e-9,
        0,
        0,
        -1,
        0,
        1
      ],
      "name": "t_shirts",
      "extras": {
        "name": "t_shirts"
      },
      "children": [
        0,
        1,
        2,
        3,
        4
      ]
    }
  ],
  "bufferViews": [
    {
      "buffer": 0,
      "byteOffset": 0,
      "byteLength": 109800,
      "target": 34962,
      "byteStride": 12
    },
    {
      "buffer": 0,
      "byteOffset": 109800,
      "byteLength": 109800,
      "target": 34962,
      "byteStride": 12
    },
    {
      "buffer": 0,
      "byteOffset": 219600,
      "byteLength": 73200,
      "target": 34962,
      "byteStride": 8
    },
    {
      "buffer": 0,
      "byteOffset": 292800,
      "byteLength": 27444,
      "target": 34963
    },
    {
      "buffer": 0,
      "byteOffset": 320244,
      "byteLength": 105960,
      "target": 34962,
      "byteStride": 12
    },
    {
      "buffer": 0,
      "byteOffset": 426204,
      "byteLength": 105960,
      "target": 34962,
      "byteStride": 12
    },
    {
      "buffer": 0,
      "byteOffset": 532164,
      "byteLength": 70640,
      "target": 34962,
      "byteStride": 8
    },
    {
      "buffer": 0,
      "byteOffset": 602804,
      "byteLength": 26484,
      "target": 34963
    },
    {
      "buffer": 0,
      "byteOffset": 629288,
      "byteLength": 42000,
      "target": 34962,
      "byteStride": 12
    },
    {
      "buffer": 0,
      "byteOffset": 671288,
      "byteLength": 42000,
      "target": 34962,
      "byteStride": 12
    },
    {
      "buffer": 0,
      "byteOffset": 713288,
      "byteLength": 28000,
      "target": 34962,
      "byteStride": 8
    },
    {
      "buffer": 0,
      "byteOffset": 741288,
      "byteLength": 10500,
      "target": 34963
    },
    {
      "buffer": 0,
      "byteOffset": 751788,
      "byteLength": 38544,
      "target": 34962,
      "byteStride": 12
    },
    {
      "buffer": 0,
      "byteOffset": 790332,
      "byteLength": 38544,
      "target": 34962,
      "byteStride": 12
    },
    {
      "buffer": 0,
      "byteOffset": 828876,
      "byteLength": 25696,
      "target": 34962,
      "byteStride": 8
    },
    {
      "buffer": 0,
      "byteOffset": 854572,
      "byteLength": 9636,
      "target": 34963
    },
    {
      "buffer": 0,
      "byteOffset": 864208,
      "byteLength": 13440,
      "target": 34962,
      "byteStride": 12
    },
    {
      "buffer": 0,
      "byteOffset": 877648,
      "byteLength": 13440,
      "target": 34962,
      "byteStride": 12
    },
    {
      "buffer": 0,
      "byteOffset": 891088,
      "byteLength": 8960,
      "target": 34962,
      "byteStride": 8
    },
    {
      "buffer": 0,
      "byteOffset": 900048,
      "byteLength": 3360,
      "target": 34963
    }
  ],
  "buffers": [
    {
      "byteLength": 903408,
      "uri": "data:application/octet-stream;base64,"
    }
  ],
  "accessors": [
    {
      "bufferView": 0,
      "componentType": 5126,
      "count": 9150,
      "max": [
        22.152292251586914,
        13.935164451599121,
        5.635962009429932
      ],
      "min": [
        -21.945980072021484,
        -3.049454927444458,
        -55.01749038696289
      ],
      "type": "VEC3"
    },
    {
      "bufferView": 1,
      "componentType": 5126,
      "count": 9150,
      "max": [
        0.9999991059303284,
        0.999973475933075,
        0.9547450542449951
      ],
      "min": [
        -0.9999313354492188,
        -0.9705063700675964,
        -0.9998993873596191
      ],
      "type": "VEC3"
    },
    {
      "bufferView": 2,
      "componentType": 5126,
      "count": 9150,
      "max": [
        0.9949212074279785,
        0.9969554543495178
      ],
      "min": [
        0.2813479006290436,
        0.003757774829864502
      ],
      "type": "VEC2"
    },
    {
      "bufferView": 3,
      "componentType": 5123,
      "count": 13722,
      "max": [
        9149
      ],
      "min": [
        0
      ],
      "type": "SCALAR"
    },
    {
      "bufferView": 4,
      "componentType": 5126,
      "count": 8830,
      "max": [
        22.151504516601562,
        1.215283989906311,
        5.756649017333984
      ],
      "min": [
        -21.944154739379883,
        -13.047693252563477,
        -55.0400390625
      ],
      "type": "VEC3"
    },
    {
      "bufferView": 5,
      "componentType": 5126,
      "count": 8830,
      "max": [
        0.9996854066848755,
        0.968935489654541,
        0.9068881869316101
      ],
      "min": [
        -0.99992436170578,
        -0.9999825358390808,
        -0.9992266297340393
      ],
      "type": "VEC3"
    },
    {
      "bufferView": 6,
      "componentType": 5126,
      "count": 8830,
      "max": [
        1.1606429815292358,
        0.9978250861167908
      ],
      "min": [
        0.2790623903274536,
        -0.037270188331604004
      ],
      "type": "VEC2"
    },
    {
      "bufferView": 7,
      "componentType": 5123,
      "count": 13242,
      "max": [
        8829
      ],
      "min": [
        0
      ],
      "type": "SCALAR"
    },
    {
      "bufferView": 8,
      "componentType": 5126,
      "count": 3500,
      "max": [
        -15.043965339660645,
        4.754129886627197,
        -27.4110050201416
      ],
      "min": [
        -27.675758361816406,
        -9.478779792785645,
        -48.35942840576172
      ],
      "type": "VEC3"
    },
    {
      "bufferView": 9,
      "componentType": 5126,
      "count": 3500,
      "max": [
        0.9999250173568726,
        0.9990093111991882,
        0.9931812286376953
      ],
      "min": [
        -0.9987823963165283,
        -0.9999884366989136,
        -0.9810243844985962
      ],
      "type": "VEC3"
    },
    {
      "bufferView": 10,
      "componentType": 5126,
      "count": 3500,
      "max": [
        0.9952574968338013,
        0.9978369474411011
      ],
      "min": [
        0.013141577132046223,
        0.424078106880188
      ],
      "type": "VEC2"
    },
    {
      "bufferView": 11,
      "componentType": 5123,
      "count": 5250,
      "max": [
        3499
      ],
      "min": [
        0
      ],
      "type": "SCALAR"
    },
    {
      "bufferView": 12,
      "componentType": 5126,
      "count": 3212,
      "max": [
        27.597469329833984,
        4.803020000457764,
        -26.940326690673828
      ],
      "min": [
        14.822796821594238,
        -9.361019134521484,
        -48.0759391784668
      ],
      "type": "VEC3"
    },
    {
      "bufferView": 13,
      "componentType": 5126,
      "count": 3212,
      "max": [
        0.9981557130813599,
        0.9998579621315002,
        0.9696143269538879
      ],
      "min": [
        -0.9998204708099365,
        -0.9995219707489014,
        -0.9745549559593201
      ],
      "type": "VEC3"
    },
    {
      "bufferView": 14,
      "componentType": 5126,
      "count": 3212,
      "max": [
        0.997692346572876,
        0.9863172769546509
      ],
      "min": [
        0.004808546043932438,
        0.4113200902938843
      ],
      "type": "VEC2"
    },
    {
      "bufferView": 15,
      "componentType": 5123,
      "count": 4818,
      "max": [
        3211
      ],
      "min": [
        0
      ],
      "type": "SCALAR"
    },
    {
      "bufferView": 16,
      "componentType": 5126,
      "count": 1120,
      "max": [
        8.286967277526855,
        6.5387067794799805,
        -49.935508728027344
      ],
      "min": [
        -7.969025135040283,
        -7.138922214508057,
        -55.5881462097168
      ],
      "type": "VEC3"
    },
    {
      "bufferView": 17,
      "componentType": 5126,
      "count": 1120,
      "max": [
        0.9365060925483704,
        0.9456389546394348,
        0.9034782648086548
      ],
      "min": [
        -0.935352087020874,
        -0.9999876618385315,
        -0.999342679977417
      ],
      "type": "VEC3"
    },
    {
      "bufferView": 18,
      "componentType": 5126,
      "count": 1120,
      "max": [
        0.9995534420013428,
        0.9970249533653259
      ],
      "min": [
        0.002265286399051547,
        0.8961294889450073
      ],
      "type": "VEC2"
    },
    {
      "bufferView": 19,
      "componentType": 5123,
      "count": 1680,
      "max": [
        1119
      ],
      "min": [
        0
      ],
      "type": "SCALAR"
    }
  ],
  "materials": [
    {
      "pbrMetallicRoughness": {
        "metallicFactor": 0,
        "roughnessFactor": 1,
        "baseColorTexture": {
          "index": 0,
          "extensions": {
            "KHR_texture_transform": {
              "scale": [
                -1,
                1
              ]
            }
          }
        }
      },
      "doubleSided": true
    },
    {
      "pbrMetallicRoughness": {
        "metallicFactor": 0,
        "roughnessFactor": 1,
        "baseColorTexture": {
          "index": 1,
          "extensions": {
            "KHR_texture_transform": {
              "scale": [
                -1,
                1
              ]
            }
          }
        }
      },
      "doubleSided": true
    },
    {
      "pbrMetallicRoughness": {
        "metallicFactor": 0,
        "roughnessFactor": 1,
        "baseColorTexture": {
          "index": 2,
          "extensions": {
            "KHR_texture_transform": {
              "scale": [
                -1,
                1
              ]
            }
          }
        }
      },
      "doubleSided": true
    },
    {
      "pbrMetallicRoughness": {
        "metallicFactor": 0,
        "roughnessFactor": 1,
        "baseColorTexture": {
          "index": 3,
          "extensions": {
            "KHR_texture_transform": {
              "scale": [
                -1,
                1
              ]
            }
          }
        }
      },
      "doubleSided": true
    },
    {
      "pbrMetallicRoughness": {
        "baseColorFactor": [
          0.800000011920929,
          0.800000011920929,
          0.800000011920929,
          1
        ],
        "metallicFactor": 0,
        "roughnessFactor": 0.5
      },
      "doubleSided": true,
      "name": "kerah"
    }
  ],
  "textures": [
    {
      "sampler": 0,
      "source": 0
    },
    {
      "sampler": 1,
      "source": 1
    },
    {
      "sampler": 2,
      "source": 2
    },
    {
      "sampler": 3,
      "source": 3
    }
  ],
  "samplers": [
    {
      "magFilter": 9729,
      "minFilter": 9987,
      "wrapS": 10497,
      "wrapT": 33071
    },
    {
      "magFilter": 9729,
      "minFilter": 9987,
      "wrapS": 10497,
      "wrapT": 33071
    },
    {
      "magFilter": 9729,
      "minFilter": 9987,
      "wrapS": 10497,
      "wrapT": 33071
    },
    {
      "magFilter": 9729,
      "minFilter": 9987,
      "wrapS": 10497,
      "wrapT": 33071
    }
  ],
  "images": [
    {
      "mimeType": "image/png",
      "uri": "data:image/png;base64,"
    },
    {
      "mimeType": "image/png",
      "uri": "data:image/png;base64,"
    },
    {
      "mimeType": "image/png",
      "uri": "data:image/png;base64,"
    },
    {
      "mimeType": "image/png",
      "uri": "data:image/png;base64,"
    }
  ],
  "meshes": [
    {
      "primitives": [
        {
          "mode": 4,
          "attributes": {
            "POSITION": 0,
            "NORMAL": 1,
            "TEXCOORD_0": 2
          },
          "indices": 3,
          "material": 0
        }
      ]
    },
    {
      "primitives": [
        {
          "mode": 4,
          "attributes": {
            "POSITION": 4,
            "NORMAL": 5,
            "TEXCOORD_0": 6
          },
          "indices": 7,
          "material": 1
        }
      ]
    },
    {
      "primitives": [
        {
          "mode": 4,
          "attributes": {
            "POSITION": 8,
            "NORMAL": 9,
            "TEXCOORD_0": 10
          },
          "indices": 11,
          "material": 2
        }
      ]
    },
    {
      "primitives": [
        {
          "mode": 4,
          "attributes": {
            "POSITION": 12,
            "NORMAL": 13,
            "TEXCOORD_0": 14
          },
          "indices": 15,
          "material": 3
        }
      ]
    },
    {
      "primitives": [
        {
          "mode": 4,
          "attributes": {
            "POSITION": 16,
            "NORMAL": 17,
            "TEXCOORD_0": 18
          },
          "indices": 19,
          "material": 4
        }
      ]
    }
  ],
  "extensionsUsed": [
    "KHR_texture_transform"
  ]
}