{
    "asset" : {
        "generator" : "Khronos glTF Blender I/O v1.6.16",
        "version" : "2.0"
    },
    "scene" : 0,
    "scenes" : [
        {
            "name" : "Scene",
            "nodes" : [
                0
            ]
        }
    ],
    "nodes" : [
        {
            "mesh" : 0,
            "name" : "t_shirts",
            "rotation" : [
                0.7071068286895752,
                0,
                0,
                0.7071067094802856
            ],
            "scale" : [
                0.10000000149011612,
                0.10000000149011612,
                0.10000000149011612
            ]
        }
    ],
    "materials" : [
        {
            "doubleSided" : true,
            "name" : "depan",
            "pbrMetallicRoughness" : {
                "baseColorFactor" : [
                    0.8000000715255737,
                    0.8000000715255737,
                    0.8000000715255737,
                    1
                ],
                "metallicFactor" : 0,
                "roughnessFactor" : 0.5
            }
        },
        {
            "doubleSided" : true,
            "name" : "belakang",
            "pbrMetallicRoughness" : {
                "baseColorFactor" : [
                    0.800000011920929,
                    0.800000011920929,
                    0.800000011920929,
                    1
                ],
                "metallicFactor" : 0,
                "roughnessFactor" : 0.5
            }
        },
        {
            "doubleSided" : true,
            "name" : "kanan",
            "pbrMetallicRoughness" : {
                "baseColorFactor" : [
                    0.800000011920929,
                    0.800000011920929,
                    0.800000011920929,
                    1
                ],
                "metallicFactor" : 0,
                "roughnessFactor" : 0.5
            }
        },
        {
            "doubleSided" : true,
            "name" : "kiri",
            "pbrMetallicRoughness" : {
                "baseColorFactor" : [
                    0.800000011920929,
                    0.800000011920929,
                    0.800000011920929,
                    1
                ],
                "metallicFactor" : 0,
                "roughnessFactor" : 0.5
            }
        },
        {
            "doubleSided" : true,
            "name" : "kerah",
            "pbrMetallicRoughness" : {
                "baseColorFactor" : [
                    0.800000011920929,
                    0.800000011920929,
                    0.800000011920929,
                    1
                ],
                "metallicFactor" : 0,
                "roughnessFactor" : 0.5
            }
        }
    ],
    "meshes" : [
        {
            "name" : "t_shirts",
            "primitives" : [
                {
                    "attributes" : {
                        "POSITION" : 0,
                        "NORMAL" : 1,
                        "TEXCOORD_0" : 2
                    },
                    "indices" : 3,
                    "material" : 0
                },
                {
                    "attributes" : {
                        "POSITION" : 4,
                        "NORMAL" : 5,
                        "TEXCOORD_0" : 6
                    },
                    "indices" : 7,
                    "material" : 1
                },
                {
                    "attributes" : {
                        "POSITION" : 8,
                        "NORMAL" : 9,
                        "TEXCOORD_0" : 10
                    },
                    "indices" : 11,
                    "material" : 2
                },
                {
                    "attributes" : {
                        "POSITION" : 12,
                        "NORMAL" : 13,
                        "TEXCOORD_0" : 14
                    },
                    "indices" : 15,
                    "material" : 3
                },
                {
                    "attributes" : {
                        "POSITION" : 16,
                        "NORMAL" : 17,
                        "TEXCOORD_0" : 18
                    },
                    "indices" : 19,
                    "material" : 4
                }
            ]
        }
    ],
    "accessors" : [
        {
            "bufferView" : 0,
            "componentType" : 5126,
            "count" : 9150,
            "max" : [
                22.152292251586914,
                13.935164451599121,
                5.635962009429932
            ],
            "min" : [
                -21.945980072021484,
                -3.049454927444458,
                -55.01749038696289
            ],
            "type" : "VEC3"
        },
        {
            "bufferView" : 1,
            "componentType" : 5126,
            "count" : 9150,
            "type" : "VEC3"
        },
        {
            "bufferView" : 2,
            "componentType" : 5126,
            "count" : 9150,
            "type" : "VEC2"
        },
        {
            "bufferView" : 3,
            "componentType" : 5123,
            "count" : 13722,
            "type" : "SCALAR"
        },
        {
            "bufferView" : 4,
            "componentType" : 5126,
            "count" : 8830,
            "max" : [
                22.151504516601562,
                1.215283989906311,
                5.756649017333984
            ],
            "min" : [
                -21.944154739379883,
                -13.047693252563477,
                -55.0400390625
            ],
            "type" : "VEC3"
        },
        {
            "bufferView" : 5,
            "componentType" : 5126,
            "count" : 8830,
            "type" : "VEC3"
        },
        {
            "bufferView" : 6,
            "componentType" : 5126,
            "count" : 8830,
            "type" : "VEC2"
        },
        {
            "bufferView" : 7,
            "componentType" : 5123,
            "count" : 13242,
            "type" : "SCALAR"
        },
        {
            "bufferView" : 8,
            "componentType" : 5126,
            "count" : 3500,
            "max" : [
                -15.043965339660645,
                4.754129886627197,
                -27.4110050201416
            ],
            "min" : [
                -27.675758361816406,
                -9.478779792785645,
                -48.35942840576172
            ],
            "type" : "VEC3"
        },
        {
            "bufferView" : 9,
            "componentType" : 5126,
            "count" : 3500,
            "type" : "VEC3"
        },
        {
            "bufferView" : 10,
            "componentType" : 5126,
            "count" : 3500,
            "type" : "VEC2"
        },
        {
            "bufferView" : 11,
            "componentType" : 5123,
            "count" : 5250,
            "type" : "SCALAR"
        },
        {
            "bufferView" : 12,
            "componentType" : 5126,
            "count" : 3212,
            "max" : [
                27.597469329833984,
                4.803020000457764,
                -26.940326690673828
            ],
            "min" : [
                14.822796821594238,
                -9.361019134521484,
                -48.0759391784668
            ],
            "type" : "VEC3"
        },
        {
            "bufferView" : 13,
            "componentType" : 5126,
            "count" : 3212,
            "type" : "VEC3"
        },
        {
            "bufferView" : 14,
            "componentType" : 5126,
            "count" : 3212,
            "type" : "VEC2"
        },
        {
            "bufferView" : 15,
            "componentType" : 5123,
            "count" : 4818,
            "type" : "SCALAR"
        },
        {
            "bufferView" : 16,
            "componentType" : 5126,
            "count" : 1120,
            "max" : [
                8.286967277526855,
                6.5387067794799805,
                -49.935508728027344
            ],
            "min" : [
                -7.969025135040283,
                -7.138922214508057,
                -55.5881462097168
            ],
            "type" : "VEC3"
        },
        {
            "bufferView" : 17,
            "componentType" : 5126,
            "count" : 1120,
            "type" : "VEC3"
        },
        {
            "bufferView" : 18,
            "componentType" : 5126,
            "count" : 1120,
            "type" : "VEC2"
        },
        {
            "bufferView" : 19,
            "componentType" : 5123,
            "count" : 1680,
            "type" : "SCALAR"
        }
    ],
    "bufferViews" : [
        {
            "buffer" : 0,
            "byteLength" : 109800,
            "byteOffset" : 0
        },
        {
            "buffer" : 0,
            "byteLength" : 109800,
            "byteOffset" : 109800
        },
        {
            "buffer" : 0,
            "byteLength" : 73200,
            "byteOffset" : 219600
        },
        {
            "buffer" : 0,
            "byteLength" : 27444,
            "byteOffset" : 292800
        },
        {
            "buffer" : 0,
            "byteLength" : 105960,
            "byteOffset" : 320244
        },
        {
            "buffer" : 0,
            "byteLength" : 105960,
            "byteOffset" : 426204
        },
        {
            "buffer" : 0,
            "byteLength" : 70640,
            "byteOffset" : 532164
        },
        {
            "buffer" : 0,
            "byteLength" : 26484,
            "byteOffset" : 602804
        },
        {
            "buffer" : 0,
            "byteLength" : 42000,
            "byteOffset" : 629288
        },
        {
            "buffer" : 0,
            "byteLength" : 42000,
            "byteOffset" : 671288
        },
        {
            "buffer" : 0,
            "byteLength" : 28000,
            "byteOffset" : 713288
        },
        {
            "buffer" : 0,
            "byteLength" : 10500,
            "byteOffset" : 741288
        },
        {
            "buffer" : 0,
            "byteLength" : 38544,
            "byteOffset" : 751788
        },
        {
            "buffer" : 0,
            "byteLength" : 38544,
            "byteOffset" : 790332
        },
        {
            "buffer" : 0,
            "byteLength" : 25696,
            "byteOffset" : 828876
        },
        {
            "buffer" : 0,
            "byteLength" : 9636,
            "byteOffset" : 854572
        },
        {
            "buffer" : 0,
            "byteLength" : 13440,
            "byteOffset" : 864208
        },
        {
            "buffer" : 0,
            "byteLength" : 13440,
            "byteOffset" : 877648
        },
        {
            "buffer" : 0,
            "byteLength" : 8960,
            "byteOffset" : 891088
        },
        {
            "buffer" : 0,
            "byteLength" : 3360,
            "byteOffset" : 900048
        }
    ],
    "buffers" : [
        {
            "byteLength" : 903408,
            "uri" : "data:application/octet-stream;base64,"
        }
    ]
}
